# xmcd
# 
# Track frame offsets:
#     150
#     11025
#     22238
#     39113
#     49707
#     63770
#     75545
#     88239
#     98299
#     109718
#     124962
#     135125
#     154279
#     173179
#     199354
#     217504
#     236854
#     257995
#     281067
#     299667
#     325439
# 
# Disc length: 4656
# 
# Revision: 1
# Processed by: cddbd v1.5.2PL0 Copyright (c) Steve Scherf et al.
# Submitted via: fre:ac v1.0.31
# 
DISCID=2b122e15
DTITLE=Kenny Drew - I Love Jerome Kern and Jazz Impressions Of Pal Joey
DYEAR=1957
DGENRE=Jazz
TTITLE0=The Way You Look Tonight
TTITLE1=I've Told Every Little Star
TTITLE2=Can't Help Loving That Man Of Mine
TTITLE3=Make Believe
TTITLE4=I'm Old Fashionned
TTITLE5=All The Things You Are
TTITLE6=Long Ago And Far Away
TTITLE7=All Through The Day
TTITLE8=The Song Is You
TTITLE9=Smoke Gets In Your Eyes
TTITLE10=Why Do I Love You ?
TTITLE11=Yesterdays
TTITLE12=Bewitched, Bothered And Bewildered
TTITLE13=Do It The Hard Way
TTITLE14=I Didn't Know What Time It Was
TTITLE15=Happy Hunting Horn
TTITLE16=I Could Write A Book
TTITLE17=What Is A Man
TTITLE18=My Funny Valentine
TTITLE19=The Lady Is A Tramp
TTITLE20=Yesterdays (1953)
EXTD=YEAR: 1957
EXTT0=
EXTT1=
EXTT2=
EXTT3=
EXTT4=
EXTT5=
EXTT6=
EXTT7=
EXTT8=
EXTT9=
EXTT10=
EXTT11=
EXTT12=
EXTT13=
EXTT14=
EXTT15=
EXTT16=
EXTT17=
EXTT18=
EXTT19=
EXTT20=
PLAYORDER=
